<?xml version="1.0" encoding="UTF-8"?><svg id="Ebene_1" xmlns="http://www.w3.org/2000/svg" viewBox="0 0 48 48"><defs><style>.cls-1{fill:#fff;}</style></defs><rect width="48" height="48"/><path class="cls-1" d="M33.43,12.83c0-1.84-2.02-6.02-9.38-6.02s-12.93,3.63-12.93,8.57c0,2.95,2.58,5.37,6.26,5.89v.1c-6.1,.74-10.36,4.68-10.36,9.62,0,2.58,2,10.2,13.51,10.2,12.25,0,16.19-7.36,16.19-11.15,0-1.68-.63-3.15-1.78-4.15,4.78-.42,8.04-2.68,8.04-5.68,0-1.26-.89-2.26-2.1-2.26-.89,0-1.63,.63-1.63,1.57,0,.89,1.05,1.63,1.05,2.32s-.63,1.1-2.26,1.1c-1.95,0-3.42-.42-5.99-.42-4.73,0-8.31,2.47-8.31,5.79,0,1.57,.84,2.57,2.05,2.57,1,0,1.74-.69,1.74-1.63,0-1.37-1.37-1.63-1.37-2.32,0-.84,1.58-1.42,3.58-1.42,2.68,0,5.31,1.58,5.31,4.57,0,4.63-5.52,8.57-11.88,8.57s-10.8-2.88-10.8-8.35c0-4.41,3.12-7.79,7.38-7.79,.79,0,1.72,.03,2.14,.03l.39-2c-.3,0-.7,0-1.24,0-2.89,0-5.25-2.18-5.38-4.68-.25-4.95,4.22-7.34,8.32-7.34,1.73,0,2.92,.4,3.56,1.03,1.12,1.12,1.29,2.2,1.46,3.25h4.43Z"/></svg>