<?xml version="1.0" encoding="UTF-8"?><svg id="Ebene_1" xmlns="http://www.w3.org/2000/svg" viewBox="0 0 47.37 45.3"><path d="M34.8,7.93c0-2.43-2.66-7.93-12.36-7.93S5.4,4.78,5.4,11.29c0,3.88,3.4,7.07,8.24,7.76v.14C5.61,20.16,0,25.35,0,31.86c0,3.4,2.63,13.44,17.8,13.44,16.14,0,21.33-9.7,21.33-14.69,0-2.21-.83-4.16-2.35-5.47,6.3-.55,10.59-3.53,10.59-7.48,0-1.66-1.18-2.98-2.77-2.98-1.18,0-2.14,.83-2.14,2.07,0,1.18,1.39,2.15,1.39,3.05s-.83,1.45-2.98,1.45c-2.56,0-4.51-.56-7.9-.56-6.23,0-10.94,3.26-10.94,7.62,0,2.07,1.11,3.39,2.7,3.39,1.32,0,2.29-.9,2.29-2.14,0-1.81-1.81-2.15-1.81-3.05,0-1.1,2.08-1.87,4.71-1.87,3.53,0,6.99,2.08,6.99,6.02,0,6.1-7.27,11.29-15.65,11.29s-14.23-3.8-14.23-11c0-5.82,4.11-10.26,9.72-10.26,1.04,0,2.27,.05,2.82,.05l.51-2.64c-.39,0-.92,0-1.63,0-3.81,0-6.92-2.87-7.09-6.16-.33-6.53,5.56-9.67,10.97-9.67,2.28,0,3.85,.52,4.69,1.36,1.47,1.47,1.69,2.9,1.93,4.28h5.84Z"/></svg>