<?xml version="1.0" encoding="UTF-8"?><svg id="Ebene_1" xmlns="http://www.w3.org/2000/svg" viewBox="0 0 1924.32 712.57"><defs><style>.cls-1{fill:#fff;}</style></defs><g><g><path class="cls-1" d="M773.49,613.43c0-20.5,4.2-38.66,12.6-54.47,8.39-15.81,20.07-28.19,35.01-37.13,14.94-8.94,32.12-13.42,51.53-13.42,12.21,0,23.12,1.42,32.72,4.25,9.6,2.84,18.65,6.33,27.15,10.47v40.24h-6.54c-1.75-10.25-4.96-18.54-9.65-24.86-4.69-6.33-10.8-10.96-18.32-13.91-7.53-2.94-16.42-4.42-26.67-4.42-17.23,0-31.9,3.88-44,11.61-12.1,7.75-21.32,18.38-27.65,31.9-6.33,13.53-9.49,29.01-9.49,46.46,0,19.42,3.54,35.88,10.63,49.4,7.08,13.53,16.57,23.78,28.46,30.76,11.89,6.98,25.14,10.47,39.75,10.47,18.1,0,31.95-4.09,41.55-12.27,9.6-8.18,15.16-19.57,16.69-34.19h6.54v40.57c-8.29,4.8-18.05,8.95-29.28,12.44-11.24,3.48-23.39,5.23-36.48,5.23-18.54,0-34.9-4.04-49.08-12.11-14.18-8.07-25.31-19.52-33.37-34.35-8.07-14.83-12.1-32.39-12.1-52.68Z"/><path class="cls-1" d="M994.79,511.68v174.38c0,6.11,1.15,10.09,3.44,11.94s6.59,3.43,12.92,4.75v6.54h-47.77v-6.54c6.32-1.31,10.63-2.89,12.92-4.75,2.29-1.85,3.43-5.84,3.43-11.94v-151.15c0-6.1-1.14-10.09-3.43-11.94-2.29-1.85-6.6-3.44-12.92-4.74v-6.54h31.41Zm-3.27,106.66v-9.49l32.07-1.31c15.26-.66,27.65-4.14,37.13-10.47,9.49-6.32,14.23-17.23,14.23-32.72,0-10.25-2.51-18.37-7.53-24.38-5.02-5.99-11.89-10.36-20.61-13.08-8.73-2.73-18.54-4.3-29.45-4.75l-25.85-.98v-9.49h28.14c14.61,0,27.27,1.75,37.95,5.23,10.69,3.49,19.03,8.95,25.03,16.36,6,7.42,9,17.23,9,29.45s-3.06,22.14-9.16,30.42c-6.11,8.29-14.29,14.56-24.54,18.81-10.25,4.25-21.71,6.38-34.35,6.38h-32.07Zm45.15-2.62l14.72-6.54,41.88,67.07c5.02,8.07,9.54,14.23,13.58,18.48,4.03,4.25,9.21,6.93,15.54,8.02v6.54h-28.46l-57.26-93.57Z"/><path class="cls-1" d="M1178.13,511.68v197.61h-31.41v-6.54c6.32-1.31,10.63-2.89,12.92-4.75,2.29-1.85,3.43-5.84,3.43-11.94v-151.15c0-6.1-1.14-10.09-3.43-11.94-2.29-1.85-6.6-3.44-12.92-4.74v-6.54h31.41Zm92.59,157.7l6.54,.66-7.52,39.26h-106.01v-8.84l71.32-2.29c11.56-.44,19.84-2.89,24.86-7.37,5.01-4.47,8.61-11.61,10.8-21.43Zm.66-157.7v37.95h-6.54c-.87-8.07-3.33-14.5-7.36-19.3-4.04-4.8-9.22-7.3-15.54-7.52l-77.54-2.62v-8.51h106.99Zm-102.73,100.44v-9.16l84.08-2.94v15.05l-84.08-2.94Z"/><path class="cls-1" d="M1346.1,709.29h-47.44v-6.54c4.58-1.31,8.12-2.62,10.63-3.93,2.51-1.31,4.58-3.32,6.22-6.05,1.64-2.72,3.44-6.71,5.4-11.94l63.47-169.15h13.09l63.14,171.77c1.74,4.58,3.32,8.07,4.75,10.47,1.42,2.4,3.27,4.2,5.56,5.4,2.29,1.2,5.51,2.35,9.65,3.44v6.54h-49.08v-6.54c6.98-1.09,11.56-2.89,13.74-5.4,2.18-2.5,2.07-6.81-.33-12.92l-57.91-159.34h2.62l-57.58,158.35c-2.62,7.2-2.62,11.94,0,14.23,2.62,2.29,7.3,3.98,14.07,5.07v6.54Zm93.9-67.73h-94.55v-11.13h94.55v11.13Z"/><path class="cls-1" d="M1475.04,511.68h75.9v8.83h-43.19c-8.07,0-14.23,2.46-18.49,7.36-4.25,4.91-6.82,12.16-7.69,21.76h-6.54v-37.95Zm78.52,174.38c0,6.11,1.14,10.09,3.43,11.94,2.29,1.85,6.6,3.43,12.92,4.75v6.54h-47.77v-6.54c6.32-1.31,10.63-2.89,12.92-4.75,2.29-1.85,3.43-5.84,3.43-11.94v-174.38h15.05v174.38Zm63.47-174.38v37.95h-6.54c-.87-9.59-3.44-16.85-7.69-21.76-4.25-4.91-10.42-7.36-18.49-7.36h-43.19v-8.83h75.9Z"/><path class="cls-1" d="M1674.71,534.91v151.15c0,6.11,1.15,10.09,3.44,11.94,2.29,1.85,6.59,3.43,12.92,4.75v6.54h-47.77v-6.54c6.32-1.31,10.63-2.89,12.92-4.75s3.43-5.84,3.43-11.94v-151.15c0-6.1-1.14-10.09-3.43-11.94-2.29-1.85-6.6-3.44-12.92-4.74v-6.54h47.77v6.54c-6.33,1.3-10.63,2.89-12.92,4.74-2.29,1.86-3.44,5.84-3.44,11.94Z"/><path class="cls-1" d="M1807.44,712.57c-17.01,0-32.34-4.2-45.97-12.6-13.63-8.39-24.43-20.01-32.39-34.84-7.96-14.83-11.94-31.62-11.94-50.38,0-16.14,2.4-30.7,7.2-43.68,4.8-12.98,11.34-24.15,19.63-33.53,8.29-9.37,17.88-16.57,28.79-21.6,10.9-5.01,22.46-7.52,34.68-7.52,12.86,0,24.75,2.4,35.66,7.2,10.9,4.8,20.45,11.57,28.63,20.28,8.18,8.73,14.56,19.04,19.14,30.92,4.58,11.89,6.87,24.81,6.87,38.77,0,21.16-3.98,39.81-11.94,55.95-7.96,16.14-18.76,28.69-32.39,37.63-13.63,8.95-28.95,13.41-45.97,13.41Zm0-11.78c15.48,0,28.68-3.76,39.59-11.29,10.91-7.53,19.3-17.78,25.19-30.76,5.89-12.97,8.84-27.43,8.84-43.35,0-19.41-3.11-36.26-9.33-50.55-6.22-14.28-14.89-25.3-26.01-33.05-11.12-7.74-23.88-11.61-38.28-11.61s-26.83,3.82-37.95,11.45c-11.12,7.64-19.85,18.11-26.17,31.41-6.33,13.31-9.49,28.46-9.49,45.48,0,18.32,2.94,34.41,8.83,48.26,5.89,13.85,14.34,24.65,25.36,32.39,11.01,7.75,24.15,11.62,39.43,11.62Z"/></g><path class="cls-1" d="M1867.74,292.32c0-10.92-11.98-35.68-55.62-35.68s-76.66,21.52-76.66,50.8c0,17.46,15.29,31.82,37.09,34.92v.62c-36.16,4.37-61.41,27.76-61.41,57.03,0,15.29,11.85,60.48,80.11,60.48,72.63,0,95.98-43.63,95.98-66.09,0-9.95-3.72-18.7-10.57-24.62,28.34-2.48,47.66-15.88,47.66-33.65,0-7.47-5.3-13.4-12.47-13.4-5.3,0-9.64,3.72-9.64,9.33,0,5.3,6.23,9.68,6.23,13.74s-3.75,6.54-13.4,6.54c-11.54,0-20.28-2.51-35.54-2.51-28.03,0-49.25,14.67-49.25,34.3,0,9.33,4.99,15.26,12.16,15.26,5.92,0,10.3-4.06,10.3-9.64,0-8.13-8.13-9.68-8.13-13.74,0-4.96,9.37-8.4,21.22-8.4,15.88,0,31.48,9.37,31.48,27.1,0,27.45-32.72,50.8-70.43,50.8s-64.02-17.08-64.02-49.49c0-26.17,18.49-46.18,43.74-46.18,4.68,0,10.19,.21,12.71,.21l2.31-11.88c-1.76,0-4.13,.03-7.34,.03-17.15,0-31.13-12.91-31.89-27.72-1.48-29.38,25.04-43.53,49.35-43.53,10.26,0,17.33,2.35,21.09,6.11,6.61,6.61,7.62,13.04,8.67,19.27h26.27Z"/></g><g><path class="cls-1" d="M240.15,33.73l-10.02,139.28c-.45,6.9,.55,12.02,3.01,15.36,2.45,3.34,6.56,5.57,12.36,6.68l-2,10.35h-59.79l2-10.35c6.9-1.78,11.52-4.17,13.86-7.18,2.34-3.01,3.84-8.96,4.51-17.87l11.36-149.63h2.67L127.25,205.41h-19.04L81.5,19.37h3.34L44.09,172.01c-2,7.57-1.79,12.86,.67,15.86,2.45,3.01,6.9,5.4,13.36,7.18l-2,10.35H0l2-10.35c6.46-1.11,11.63-3.12,15.53-6.01,3.89-2.89,6.73-7.68,8.52-14.36L62.79,37.07c1.78-7.35,2-12.8,.67-16.37-1.34-3.56-5.01-5.79-11.02-6.68l1.67-10.35h50.77l26.05,184.03-12.69-1.34L207.75,3.67h53.44l-2,10.35c-6.24,.89-10.85,2.9-13.86,6.01-3.01,3.12-4.73,7.68-5.18,13.69Z"/><path class="cls-1" d="M317.83,205.41h-56.45l2-10.35c5.57-1.56,9.91-3.12,13.03-4.68,3.12-1.56,5.79-3.89,8.02-7.01,2.22-3.12,4.79-7.35,7.68-12.69L380.29,3.67h24.05l28.06,169.67c1.11,6.9,2.78,11.8,5.01,14.7,2.22,2.9,6.35,5.23,12.36,7.01l-2,10.35h-60.45l2-10.35c7.35-1.11,12.24-3.17,14.7-6.18,2.45-3.01,3.12-7.51,2-13.53l-24.38-151.97h4.34l-77.49,151.3c-3.56,7.13-4.29,11.97-2.17,14.53,2.11,2.56,6.62,4.51,13.53,5.85l-2,10.35Zm91.18-66.8h-88.51l2.67-14.7h88.51l-2.67,14.7Z"/><path class="cls-1" d="M630.65,205.41h-21.38L528.78,28.06h6.35l-25.72,147.29c-1.34,6.9-.78,11.58,1.67,14.03,2.45,2.45,6.79,4.34,13.03,5.68l-1.67,10.35h-53.77l2-10.35c6.46-1.34,11.3-3.23,14.53-5.68,3.23-2.45,5.4-6.79,6.51-13.03l25.05-142.62c1.11-6.01,.67-10.46-1.34-13.36-2-2.89-6.24-5.01-12.69-6.35l1.67-10.35h41.75l79.49,175.35-9.35,5.34,26.72-150.63c1.34-6.9,.61-11.69-2.17-14.36-2.79-2.67-7.18-4.45-13.19-5.34l2-10.35h54.11l-2,10.35c-6.68,1.34-11.58,3.29-14.7,5.84-3.12,2.56-5.23,7.07-6.35,13.53l-30.06,172.01Z"/><path class="cls-1" d="M747.15,32.73l-25.38,143.62c-1.12,6.24-.56,10.58,1.67,13.03,2.22,2.45,6.46,4.34,12.69,5.68l-2,10.35h-61.79l2-10.35c6.9-1.34,11.86-3.17,14.86-5.51,3.01-2.34,5.06-6.73,6.18-13.19l25.05-143.62c1.11-6.46,.67-10.85-1.34-13.19-2-2.34-6.24-4.17-12.69-5.51l1.67-10.35h61.79l-1.67,10.35c-6.9,1.34-11.86,3.17-14.86,5.51s-5.07,6.74-6.18,13.19Z"/><path class="cls-1" d="M821.16,205.41h-61.79l2-10.35c6.9-1.34,11.86-3.17,14.86-5.51,3.01-2.34,5.06-6.73,6.18-13.19l25.05-143.62c1.11-6.46,.67-10.85-1.34-13.19-2-2.34-6.24-4.17-12.69-5.51l1.67-10.35h44.42l-30.73,172.68c-1.12,6.24-.56,10.58,1.67,13.03,2.22,2.45,6.46,4.34,12.69,5.68l-2,10.35Zm-6.68-77.49l2.34-14.36,27.39-1c12.24-.67,22.54-3.34,30.9-8.02,8.35-4.68,14.75-11.02,19.21-19.04,4.45-8.02,6.68-17.03,6.68-27.05,0-12.24-4.23-21.82-12.69-28.72-8.46-6.9-19.49-10.69-33.07-11.36l-21.38-.67,2.67-14.03h21.71c22.04,0,39.52,4.73,52.44,14.19,12.91,9.47,19.37,22.77,19.37,39.91,0,12.25-3.4,23.71-10.19,34.4-6.79,10.69-16.65,19.32-29.56,25.89-12.92,6.57-28.28,9.85-46.09,9.85h-29.73Z"/><path class="cls-1" d="M1089.26,33.73c1.34-6.9,.94-11.58-1.17-14.03-2.12-2.45-6.51-4.34-13.19-5.68l2.01-10.35h53.77l-2,10.35c-6.9,1.34-11.86,3.29-14.86,5.84-3.01,2.56-5.07,7.07-6.18,13.53l-17.7,99.53c-4.46,24.72-13.36,43.59-26.72,56.61-13.36,13.03-30.51,19.54-51.44,19.54-15.36,0-28.34-3.23-38.91-9.69-10.58-6.46-18.04-15.64-22.38-27.55-4.34-11.91-5.18-25.89-2.5-41.92l17.37-97.19c1.11-6.46,.67-10.85-1.34-13.19s-6.24-4.17-12.69-5.51l2-10.35h61.79l-2,10.35c-6.68,1.34-11.58,3.17-14.7,5.51-3.12,2.34-5.24,6.74-6.35,13.19l-17.03,94.52c-3.79,21.38-2.12,37.69,5.01,48.93,7.12,11.25,18.7,16.87,34.74,16.87s29.28-5.23,38.41-15.7c9.13-10.46,15.36-25.38,18.7-44.76l17.37-98.86Z"/><path class="cls-1" d="M1192.63,32.73l-30.39,172.68h-44.42l2-10.35c6.9-1.34,11.86-3.17,14.86-5.51,3.01-2.34,5.06-6.73,6.18-13.19l25.05-143.62c1.11-6.46,.67-10.85-1.34-13.19s-6.24-4.17-12.69-5.51l1.67-10.35h61.79l-1.67,10.35c-6.9,1.34-11.86,3.17-14.86,5.51s-5.07,6.74-6.18,13.19Zm62.46,121.24l11.02,1.34-18.37,50.1h-104.21l2.34-13.36,65.46-2.34c11.36-.44,20.48-4.01,27.39-10.69,6.9-6.68,12.36-15.03,16.37-25.05Z"/><path class="cls-1" d="M1328.13,205.41h-56.45l2-10.35c5.57-1.56,9.91-3.12,13.03-4.68,3.12-1.56,5.79-3.89,8.02-7.01,2.22-3.12,4.79-7.35,7.68-12.69L1390.59,3.67h24.05l28.06,169.67c1.11,6.9,2.78,11.8,5.01,14.7,2.22,2.9,6.35,5.23,12.36,7.01l-2,10.35h-60.45l2-10.35c7.35-1.11,12.24-3.17,14.7-6.18,2.45-3.01,3.12-7.51,2-13.53l-24.38-151.97h4.34l-77.49,151.3c-3.56,7.13-4.29,11.97-2.17,14.53,2.11,2.56,6.62,4.51,13.53,5.85l-2,10.35Zm91.18-66.8h-88.51l2.67-14.7h88.51l-2.67,14.7Z"/><path class="cls-1" d="M1485.14,3.67h74.15l-2.67,13.03h-35.07c-8.24,0-15.2,2.73-20.88,8.18-5.68,5.46-9.74,13.08-12.19,22.88h-11.36l8.02-44.09Zm60.45,172.68c-1.12,6.24-.62,10.58,1.5,13.03,2.11,2.45,6.4,4.34,12.86,5.68l-2,10.35h-61.79l1.67-10.35c6.9-1.34,11.86-3.17,14.86-5.51,3.01-2.34,5.06-6.73,6.18-13.19L1549.27,3.67h26.72l-30.39,172.68ZM1639.78,3.67l-8.02,44.09h-11.02c.89-9.8-.5-17.42-4.17-22.88-3.67-5.45-9.63-8.18-17.87-8.18h-34.07l2.34-13.03h72.81Z"/><path class="cls-1" d="M1700.84,32.73l-25.38,143.62c-1.12,6.24-.56,10.58,1.67,13.03,2.22,2.45,6.46,4.34,12.69,5.68l-2,10.35h-61.79l2-10.35c6.9-1.34,11.86-3.17,14.86-5.51,3.01-2.34,5.06-6.73,6.18-13.19l25.05-143.62c1.11-6.46,.67-10.85-1.34-13.19s-6.24-4.17-12.69-5.51l1.67-10.35h61.79l-1.67,10.35c-6.9,1.34-11.86,3.17-14.86,5.51s-5.07,6.74-6.18,13.19Z"/><path class="cls-1" d="M1801.77,209.08c-14.7,0-27.67-3.67-38.91-11.02-11.25-7.35-20.04-17.64-26.39-30.9-6.35-13.25-9.52-28.67-9.52-46.26,0-16.48,2.78-32.01,8.35-46.59,5.56-14.58,13.03-27.44,22.38-38.58,9.35-11.13,19.93-19.87,31.73-26.22,11.8-6.35,23.93-9.52,36.41-9.52,14.7,0,27.61,3.67,38.74,11.02,11.13,7.35,19.92,17.59,26.39,30.73,6.46,13.14,9.69,28.61,9.69,46.43,0,16.48-2.79,32.01-8.35,46.59-5.57,14.59-13.03,27.45-22.38,38.58-9.35,11.14-19.93,19.87-31.73,26.22-11.8,6.35-23.94,9.52-36.41,9.52Zm0-17.03c9.79,0,18.87-3.06,27.22-9.19,8.35-6.12,15.7-14.36,22.04-24.72s11.24-21.71,14.7-34.07c3.45-12.36,5.18-24.88,5.18-37.57,0-22.26-4.01-39.46-12.02-51.6-8.02-12.13-18.93-18.2-32.73-18.2-9.8,0-18.93,3.12-27.39,9.35-8.46,6.24-15.86,14.48-22.21,24.72-6.35,10.24-11.25,21.6-14.7,34.07-3.46,12.47-5.18,25.05-5.18,37.74,0,22.27,4.01,39.41,12.02,51.44s19.04,18.04,33.07,18.04Z"/></g></svg>